Coordinates
version=1
nRows=17
nColumns=24
inDegrees=yes

Units are S.I. units (second, meters, Newtons, ...)
Angles are in degrees.

endheader
time	pelvis_tilt	pelvis_list	pelvis_rotation	pelvis_tx	pelvis_ty	pelvis_tz	hip_flexion_r	hip_adduction_r	hip_rotation_r	knee_angle_r	ankle_angle_r	subtalar_angle_r	mtp_angle_r	hip_flexion_l	hip_adduction_l	hip_rotation_l	knee_angle_l	ankle_angle_l	subtalar_angle_l	mtp_angle_l	lumbar_extension	lumbar_bending	lumbar_rotation
      1.42483333	      0.90653358	      8.85014214	     -4.72824426	      0.30398295	      1.00847169	      0.31345795	     18.06435966	    -11.17980619	      1.53767657	    -75.01405218	    -11.85007512	    -12.53530043	      6.18497022	      5.90942072	     13.89871892	      2.77430558	     -8.27891926	      1.16624895	    -17.21426589	     -1.67654729	    -12.96211248	     -4.54979397	     -1.97835106
      1.42900000	      0.90630282	      8.64001585	     -4.64545735	      0.30877860	      1.00936659	      0.31305432	     18.59972115	    -10.89629140	      1.40457116	    -74.75814664	    -11.27415944	    -12.77625235	      6.16811500	      5.34634750	     13.71784704	      2.93818697	     -7.83397211	      1.20778542	    -17.12074088	     -1.67532182	    -12.99196351	     -4.23712106	     -2.21055247
      1.43316667	      0.92529301	      8.43880361	     -4.55931055	      0.31359611	      1.01024234	      0.31264185	     19.09575178	    -10.62953175	      1.26372371	    -74.43841796	    -10.71350095	    -12.98543971	      6.11950763	      4.74479837	     13.54840882	      3.14171351	     -7.35309188	      1.25375378	    -17.07007524	     -1.67495770	    -13.01715526	     -3.93093249	     -2.56779127
      1.43733333	      0.90517760	      8.23687632	     -4.46782546	      0.31837907	      1.01102908	      0.31223181	     19.62375105	    -10.35386927	      1.12232355	    -74.07098894	    -10.09331922	    -13.21285266	      6.08584993	      4.21144293	     13.36906788	      3.28756525	     -6.91806947	      1.27503122	    -16.96731630	     -1.67486553	    -13.03251171	     -3.62982629	     -2.72433688
      1.44150000	      0.92986495	      8.03160114	     -4.37217963	      0.32319521	      1.01184646	      0.31181824	     20.07539553	    -10.08583305	      0.96391234	    -73.63073302	     -9.48746523	    -13.39222148	      6.02352091	      3.61256757	     13.18852615	      3.46239376	     -6.45366486	      1.32061872	    -16.87880373	     -1.67487610	    -13.07768590	     -3.32284525	     -3.00241194
      1.44566667	      0.90564762	      7.83322455	     -4.26577416	      0.32801380	      1.01255388	      0.31141557	     20.56461161	     -9.81883374	      0.80161343	    -73.13982931	     -8.83471528	    -13.60941435	      5.99161934	      3.08869096	     13.00558305	      3.57413561	     -6.03058645	      1.34291888	    -16.75516435	     -1.67473825	    -13.05515438	     -3.05642399	     -3.12493350
      1.44983333	      0.93334648	      7.61735394	     -4.16676014	      0.33282809	      1.01329531	      0.31100510	     20.97628049	     -9.53865368	      0.63891120	    -72.57926656	     -8.22697361	    -13.73812204	      5.90554437	      2.48929544	     12.80785563	      3.74774939	     -5.57109875	      1.41762927	    -16.63880184	     -1.67394438	    -13.10949662	     -2.72179291	     -3.44122507
      1.45400000	      0.89197571	      7.43599578	     -4.05750437	      0.33763984	      1.01387385	      0.31060815	     21.45862553	     -9.29027372	      0.48003233	    -71.98659501	     -7.55724769	    -13.92681003	      5.86569830	      1.99659540	     12.63631943	      3.84158333	     -5.16591079	      1.43972338	    -16.50040993	     -1.67369792	    -13.07966328	     -2.46422178	     -3.55010398
      1.45816667	      0.94424635	      7.24276527	     -3.95067291	      0.34246350	      1.01455403	      0.31021377	     21.81104062	     -9.04353913	      0.30767330	    -71.32069702	     -6.90791199	    -14.03098597	      5.70280653	      1.38065235	     12.45626581	      3.98423882	     -4.71844495	      1.50500103	    -16.34693742	     -1.67403049	    -13.14987677	     -2.16878421	     -3.90978565
      1.46233333	      0.91943861	      7.03956072	     -3.84749548	      0.34728959	      1.01507136	      0.30983184	     22.23556507	     -8.77175314	      0.15119638	    -70.60516065	     -6.27155284	    -14.12178482	      5.59235709	      0.86607074	     12.25762377	      4.09311981	     -4.30732425	      1.58889998	    -16.19464885	     -1.67264123	    -13.13424266	     -1.86766251	     -4.05707416
      1.46650000	      0.88907906	      6.87422729	     -3.74267532	      0.35209347	      1.01550830	      0.30945912	     22.66379332	     -8.54377323	     -0.00011777	    -69.85801198	     -5.59608397	    -14.25509842	      5.54354318	      0.37652422	     12.09600834	      4.17090155	     -3.92071733	      1.62685693	    -16.03698908	     -1.67151236	    -13.12400455	     -1.62830396	     -4.14631370
      1.47066667	      0.93558529	      6.68594855	     -3.64465278	      0.35694056	      1.01603106	      0.30910514	     22.97347009	     -8.29788095	     -0.15364861	    -69.02949227	     -4.95733143	    -14.27150013	      5.41228339	     -0.21566941	     11.91164733	      4.27400656	     -3.50362152	      1.73259406	    -15.84776177	     -1.66858374	    -13.17796496	     -1.35311166	     -4.41536824
      1.47483333	      0.88127587	      6.52636740	     -3.54182727	      0.36175745	      1.01633322	      0.30875683	     23.39619240	     -8.07100221	     -0.29206725	    -68.17935165	     -4.30004672	    -14.37900086	      5.36108659	     -0.66982748	     11.74973547	      4.34566636	     -3.13144913	      1.77794322	    -15.69311606	     -1.66663260	    -13.13773839	     -1.11857496	     -4.49091244
      1.47900000	      0.89675508	      6.34472315	     -3.43623418	      0.36659628	      1.01670883	      0.30842350	     23.70726197	     -7.83077334	     -0.44171981	    -67.25057136	     -3.66836330	    -14.37017735	      5.27132540	     -1.19994734	     11.56506978	      4.42302492	     -2.76614751	      1.87106808	    -15.52189823	     -1.66278515	    -13.15297038	     -0.87820985	     -4.67920175
      1.48316667	      0.89233723	      6.19585490	     -3.33981183	      0.37142482	      1.01697807	      0.30809712	     24.04089034	     -7.62337262	     -0.57241610	    -66.29586853	     -3.04207970	    -14.40140221	      5.19469059	     -1.70465134	     11.41330732	      4.50086346	     -2.39673005	      1.94444028	    -15.35248609	     -1.65914628	    -13.16668650	     -0.64670890	     -4.82108648
      1.48733333	      0.92450930	      6.06566389	     -3.25539452	      0.37626984	      1.01722567	      0.30778837	     24.32462522	     -7.43901085	     -0.68641404	    -65.29841906	     -2.45936419	    -14.36882517	      5.03500474	     -2.25442611	     11.28153537	      4.58731175	     -2.01354906	      2.05826327	    -15.16389794	     -1.65322944	    -13.20549605	     -0.44142747	     -5.06503813
      1.49150000	      0.92185251	      5.91983219	     -3.16429872	      0.38111460	      1.01740105	      0.30749323	     24.61994580	     -7.23397540	     -0.80729594	    -64.23909269	     -1.89247218	    -14.36404242	      4.90462025	     -2.75040913	     11.12931550	      4.66072586	     -1.66082197	      2.14451956	    -15.01292741	     -1.64815462	    -13.20935107	     -0.23145786	     -5.19388498
